<?xml version="1.0" encoding="UTF-8"?>
<svg width="24px" height="24px" viewBox="0 0 24 24" version="1.1" xmlns="http://www.w3.org/2000/svg" xmlns:xlink="http://www.w3.org/1999/xlink">
    <!-- Generator: Sketch 57.1 (83088) - https://sketch.com -->
    <title>IC_DESIGNER</title>
    <desc>Created with Sketch.</desc>
    <g id="Page-1" stroke="none" stroke-width="1" fill="none" fill-rule="evenodd">
        <g id="iPhone-XS-Copy-9" transform="translate(-296.000000, -364.000000)">
            <g id="IC_DESIGNER" transform="translate(280.000000, 348.000000)">
                <path d="M19,21 L37.8620605,21 C38.96663,21 39.8620605,21.8954305 39.8620605,23 L39.8620605,35.53125 L39.8620605,35.53125 L17,35.53125 L17,23 C17,21.8954305 17.8954305,21 19,21 Z" id="Rectangle" fill="#FFB733"></path>
                <circle id="Oval" cx="28" cy="28" r="28"></circle>
                <g id="computer-(1)" transform="translate(16.000000, 16.000000)">
                    <path d="M21.6679688,0.46875 L2.35546875,0.46875 C1.32000731,0.46875 0.48046875,1.30828856 0.48046875,2.34375 L0.48046875,14.8125 L23.5429688,14.8125 L23.5429688,2.34375 C23.5429688,1.30828856 22.7034302,0.46875 21.6679688,0.46875 Z" id="Path" fill="#FFFFFF" fill-rule="nonzero"></path>
                    <path d="M23.5429688,14.8125 L23.5429688,16.6875 C23.5429688,17.7229614 22.7034302,18.5625 21.6679688,18.5625 C20.8227539,18.5625 3.29791261,18.5625 2.35546875,18.5625 C1.32000731,18.5625 0.48046875,17.7229614 0.48046875,16.6875 L0.48046875,14.8125 L23.5429688,14.8125 Z" id="Path" fill="#FFFFFF" fill-rule="nonzero"></path>
                    <polygon id="Path" fill="#FFFFFF" fill-rule="nonzero" points="20.4492188 14.8125 16.6992188 14.8125 16.6992188 3.5625 20.4492188 3.5625"></polygon>
                    <path d="M16.6992188,23.53125 L7.32421875,23.53125 C7.32421875,22.4963379 8.16412355,21.65625 9.19921875,21.65625 L14.8242188,21.65625 C15.8596802,21.65625 16.6992188,22.4957886 16.6992188,23.53125 Z" id="Path" fill="#FFFFFF" fill-rule="nonzero"></path>
                    <path d="M13.7142334,6.34405519 C14.428894,7.58386228 13.5380859,9.15509034 12.0895386,9.15509034 C10.6373291,9.15509034 9.75183103,7.58020022 10.4642944,6.34405519 L12.0895386,3.53009034 L13.7142334,6.34405519 Z" id="Path" fill="#FFFFFF" fill-rule="nonzero"></path>
                    <polygon id="Path" fill="#FFFFFF" fill-rule="nonzero" points="10.1367188 18.5625 13.8867188 18.5625 13.8867188 21.65625 10.1367188 21.65625"></polygon>
                    <path d="M13.4179688,14.8125 L10.6054688,14.8125 C10.6054688,14.1355591 10.6213989,13.5093384 10.6472168,12.9375 L13.3780518,12.9375 C13.4029541,13.506958 13.4179688,14.1328125 13.4179688,14.8125 Z" id="Path" fill="#FFFFFF" fill-rule="nonzero"></path>
                    <path d="M5.44921875,3.5625 L7.32421875,7.3125 C6.87048338,7.3125 4.03088381,7.3125 3.57421875,7.3125 L5.44921875,3.5625 Z" id="Path" fill="#FFFFFF" fill-rule="nonzero"></path>
                    <path d="M3.57421875,7.3125 L3.57421875,14.8125 L7.32421875,14.8125 L7.32421875,7.3125 C6.87048338,7.3125 4.03088381,7.3125 3.57421875,7.3125 Z" id="Path" fill="#FFFFFF" fill-rule="nonzero"></path>
                    <path d="M14.8125,16.21875 C14.553772,16.21875 14.34375,16.428772 14.34375,16.6875 C14.34375,16.946228 14.553772,17.15625 14.8125,17.15625 C15.071228,17.15625 15.28125,16.946228 15.28125,16.6875 C15.28125,16.428772 15.071228,16.21875 14.8125,16.21875 Z" id="Path" fill="#FFB733" fill-rule="nonzero"></path>
                    <polygon id="Path-17" fill="#FFFFFF" points="11.1291504 9.31263173 10.6690259 12.7919369 13.2762068 12.7919369 12.8739624 9.15509034"></polygon>
                    <path d="M21.65625,0 L2.34375,0 C1.05139162,0 0,1.05139162 0,2.34375 L0,16.6875 C0,17.9798584 1.05139162,19.03125 2.34375,19.03125 L9.65625,19.03125 L9.65625,21.1875 L9.1875,21.1875 C8.56164553,21.1875 7.97332762,21.4313965 7.53039553,21.8741455 C7.08764648,22.3170776 6.84375,22.9053955 6.84375,23.53125 C6.84375,23.7901612 7.05358884,24 7.3125,24 L16.6875,24 C16.9464112,24 17.15625,23.7901612 17.15625,23.53125 C17.15625,22.2388916 16.1048584,21.1875 14.8125,21.1875 L14.34375,21.1875 L14.34375,19.03125 L21.65625,19.03125 C22.9486084,19.03125 24,17.9798584 24,16.6875 L24,2.34375 C24,1.05139162 22.9486084,0 21.65625,0 Z M2.34375,0.9375 L21.65625,0.9375 C22.4317017,0.9375 23.0625,1.56829833 23.0625,2.34375 L23.0625,14.34375 L20.90625,14.34375 L20.90625,3.5625 C20.90625,3.30358884 20.6964112,3.09375 20.4375,3.09375 L16.6875,3.09375 C16.4285888,3.09375 16.21875,3.30358884 16.21875,3.5625 L16.21875,14.34375 L13.8724365,14.34375 C13.8674927,13.8588867 13.8548584,13.3809815 13.8347168,12.9173584 C13.7526855,11.0083008 13.5657349,9.72949219 13.4685059,9.16699219 C14.435669,8.45489503 14.699707,7.13507081 14.1084595,6.10968019 L12.4837646,3.29571534 C12.3999023,3.15069581 12.2451782,3.06134034 12.0778198,3.06134034 C11.9102783,3.06134034 11.7555542,3.15069581 11.671875,3.29571534 L10.0464478,6.10986328 C9.48907472,7.07666016 9.68664553,8.32891847 10.5622559,9.06793214 C10.4608154,9.62878416 10.2561035,10.9533691 10.1671143,12.9164429 C10.1460571,13.3850098 10.1326904,13.8632812 10.1275635,14.34375 L7.78125,14.34375 L7.78125,7.3125 C7.78125,7.23815916 7.76367187,7.17041016 7.73492433,7.11016847 C7.73364258,7.10778806 7.73291016,7.10522461 7.7318115,7.10284425 L5.8568115,3.35284425 C5.77734375,3.1940918 5.61511228,3.09375 5.4375,3.09375 C5.25988772,3.09375 5.09765625,3.1940918 5.0181885,3.35284425 L3.1431885,7.10284425 C3.14208984,7.10522461 3.14135742,7.10778806 3.14025881,7.11016847 C3.11096194,7.17095948 3.09375,7.23980714 3.09375,7.3125 L3.09375,14.34375 L0.9375,14.34375 L0.9375,2.34375 C0.9375,1.56829833 1.56829833,0.9375 2.34375,0.9375 Z M17.15625,14.34375 L17.15625,4.03125 L19.96875,4.03125 L19.96875,4.96875 L19.5,4.96875 C19.2410888,4.96875 19.03125,5.17858884 19.03125,5.4375 C19.03125,5.69641116 19.2410888,5.90625 19.5,5.90625 L19.96875,5.90625 L19.96875,7.3125 L19.5,7.3125 C19.2410888,7.3125 19.03125,7.52233884 19.03125,7.78125 C19.03125,8.04016116 19.2410888,8.25 19.5,8.25 L19.96875,8.25 L19.96875,9.65625 L19.5,9.65625 C19.2410888,9.65625 19.03125,9.86608884 19.03125,10.125 C19.03125,10.3839112 19.2410888,10.59375 19.5,10.59375 L19.96875,10.59375 L19.96875,12.46875 L19.5,12.46875 C19.2410888,12.46875 19.03125,12.6785888 19.03125,12.9375 C19.03125,13.1964112 19.2410888,13.40625 19.5,13.40625 L19.96875,13.40625 L19.96875,14.34375 L17.15625,14.34375 Z M12.0778198,9.62384034 C12.2481079,9.62384034 12.4176636,9.60424805 12.5835571,9.56762695 C12.6705323,10.1251831 12.7983398,11.1117554 12.8739624,12.46875 L11.1291504,12.46875 C11.208435,11.1126709 11.3422852,10.1107178 11.4347534,9.53430178 C11.642395,9.59344481 11.8586426,9.62384034 12.0778198,9.62384034 Z M12.0778198,8.68634034 C11.0064698,8.68634034 10.3156128,7.52032472 10.8585205,6.57843019 L12.0778198,4.46759034 L13.2963867,6.57824709 C13.8372803,7.51629638 13.1559448,8.68634034 12.0778198,8.68634034 Z M11.0861206,13.40625 L12.9151612,13.40625 C12.9250488,13.7142334 12.9318237,14.0275268 12.9351196,14.34375 L11.0650635,14.34375 C11.0685425,14.029541 11.0756836,13.7162475 11.0861206,13.40625 Z M5.90625,14.34375 L5.90625,7.78125 L6.84375,7.78125 L6.84375,14.34375 L5.90625,14.34375 Z M4.03125,14.34375 L4.03125,7.78125 L4.96875,7.78125 L4.96875,14.34375 L4.03125,14.34375 Z M4.32092288,6.84375 L5.4375,4.6105957 L6.55407713,6.84375 L4.32092288,6.84375 Z M16.1383667,23.0625 L7.86108398,23.0625 C7.92993164,22.8671265 8.04235838,22.6880493 8.19323728,22.5369873 C8.45910647,22.2713013 8.81213381,22.125 9.1875,22.125 L14.8125,22.125 C15.423706,22.125 15.9450073,22.5168457 16.1383667,23.0625 Z M13.40625,21.1875 L10.59375,21.1875 L10.59375,19.03125 L13.40625,19.03125 L13.40625,21.1875 Z M21.65625,18.09375 L2.34375,18.09375 C1.56829833,18.09375 0.9375,17.4629517 0.9375,16.6875 L0.9375,15.28125 L23.0625,15.28125 L23.0625,16.6875 C23.0625,17.4629517 22.4317017,18.09375 21.65625,18.09375 Z" id="Shape" fill="#FFB733" fill-rule="nonzero"></path>
                    <path d="M12.9375,16.21875 L10.125,16.21875 C9.86608884,16.21875 9.65625,16.4285888 9.65625,16.6875 C9.65625,16.9464112 9.86608884,17.15625 10.125,17.15625 L12.9375,17.15625 C13.1964112,17.15625 13.40625,16.9464112 13.40625,16.6875 C13.40625,16.4285888 13.1964112,16.21875 12.9375,16.21875 Z" id="Path" fill="#FFB733" fill-rule="nonzero"></path>
                </g>
            </g>
        </g>
    </g>
</svg>