<?xml version="1.0" encoding="UTF-8"?>
<svg width="24px" height="21px" viewBox="0 0 24 21" version="1.1" xmlns="http://www.w3.org/2000/svg" xmlns:xlink="http://www.w3.org/1999/xlink">
    <!-- Generator: Sketch 57.1 (83088) - https://sketch.com -->
    <title>IC_MAKEUP</title>
    <desc>Created with Sketch.</desc>
    <g id="Page-1" stroke="none" stroke-width="1" fill="none" fill-rule="evenodd">
        <g id="iPhone-XS-Copy-9" transform="translate(-56.000000, -270.000000)">
            <g id="IC_MAKEUP" transform="translate(40.000000, 252.000000)">
                <circle id="Oval" cx="28" cy="28" r="28"></circle>
                <g id="makeup" transform="translate(16.000000, 18.000000)" fill-rule="nonzero">
                    <polygon id="Path" fill="#FFB733" points="23.9641558 15.568875 23.2394805 20.961675 18.68 20.961675 17.9553247 15.568875 17.9667532 15.538425 18.0451948 15.568875"></polygon>
                    <path d="M5.93090909,13.885725 L5.93090909,19.88385 C5.93065095,20.4858821 5.44765084,20.97375 4.85194805,20.97375 L1.11428571,20.97375 C0.518762041,20.9735472 0.0360448571,20.4857011 0.0358441558,19.88385 L0.0358441558,13.885725 L5.93090909,13.885725 Z" id="Path" fill="#FFB733"></path>
                    <path d="M4.99480519,9.96235 L0.971428571,9.96235 L0.971428571,14.16235 L4.99480519,14.16235 L4.99480519,9.96235 Z" id="Path" stroke="#FFB733" stroke-width="0.8" fill="#FFFFFF"></path>
                    <path d="M4.6212987,3.210375 C4.78805195,3.3789 4.83168831,3.64665 4.76935065,3.966375 C4.67012987,4.48035 4.29766234,5.12715 3.72519481,5.7057 C2.79584416,6.644925 1.69038961,7.050225 1.2561039,6.611325 C1.23411579,6.58919118 1.21412328,6.56512097 1.19636364,6.5394 C0.863376623,6.05955 1.27012987,5.006925 2.15168831,4.116 C3.08103896,3.176775 4.18649351,2.771475 4.6212987,3.210375 L4.6212987,3.210375 Z" id="Path" fill="#FFE3B0"></path>
                    <path d="M4.76987013,3.966375 L4.76987013,9.56235 L1.19636364,9.56235 L1.19636364,6.5394 C1.21412328,6.56512097 1.23411579,6.58919118 1.2561039,6.611325 C1.69038961,7.050225 2.79584416,6.644925 3.72519481,5.7057 C4.29766234,5.12715 4.67012987,4.48035 4.76935065,3.966375 L4.76987013,3.966375 Z" id="Path" fill="#FFC761"></path>
                    <g id="Group" transform="translate(9.402597, 3.097500)" fill="#FEDB41">
                        <path d="M6.55324675,6.891675 L0.449350649,6.891675 C0.219829714,6.891675 0.0337662338,6.70363459 0.0337662338,6.471675 C0.0337662338,6.23971541 0.219829714,6.051675 0.449350649,6.051675 L6.55324675,6.051675 C6.78276769,6.051675 6.96883117,6.23971541 6.96883117,6.471675 C6.96883117,6.70363459 6.78276769,6.891675 6.55324675,6.891675 Z" id="Path"></path>
                        <path d="M6.55324675,4.943925 L0.449350649,4.943925 C0.219829714,4.943925 0.0337662338,4.75588459 0.0337662338,4.523925 C0.0337662338,4.29196541 0.219829714,4.103925 0.449350649,4.103925 L6.55324675,4.103925 C6.78276769,4.103925 6.96883117,4.29196541 6.96883117,4.523925 C6.96883117,4.75588459 6.78276769,4.943925 6.55324675,4.943925 Z" id="Path"></path>
                        <path d="M6.55324675,2.9967 L0.449350649,2.9967 C0.219829714,2.9967 0.0337662338,2.80865959 0.0337662338,2.5767 C0.0337662338,2.34474041 0.219829714,2.1567 0.449350649,2.1567 L6.55324675,2.1567 C6.78276769,2.1567 6.96883117,2.34474041 6.96883117,2.5767 C6.96883117,2.80865959 6.78276769,2.9967 6.55324675,2.9967 Z" id="Path"></path>
                        <path d="M6.55324675,1.04895 L0.449350649,1.04895 C0.219829714,1.04895 0.0337662338,0.860909595 0.0337662338,0.62895 C0.0337662338,0.396990405 0.219829714,0.20895 0.449350649,0.20895 L6.55324675,0.20895 C6.78276769,0.20895 6.96883117,0.396990405 6.96883117,0.62895 C6.96883117,0.860909595 6.78276769,1.04895 6.55324675,1.04895 Z" id="Path"></path>
                        <path d="M6.55324675,14.681625 L0.449350649,14.681625 C0.219829714,14.681625 0.0337662338,14.4935846 0.0337662338,14.261625 C0.0337662338,14.0296654 0.219829714,13.841625 0.449350649,13.841625 L6.55324675,13.841625 C6.78276769,13.841625 6.96883117,14.0296654 6.96883117,14.261625 C6.96883117,14.4935846 6.78276769,14.681625 6.55324675,14.681625 Z" id="Path"></path>
                        <path d="M6.55324675,12.7344 L0.449350649,12.7344 C0.219829714,12.7344 0.0337662338,12.5463596 0.0337662338,12.3144 C0.0337662338,12.0824404 0.219829714,11.8944 0.449350649,11.8944 L6.55324675,11.8944 C6.78276769,11.8944 6.96883117,12.0824404 6.96883117,12.3144 C6.96883117,12.5463596 6.78276769,12.7344 6.55324675,12.7344 Z" id="Path"></path>
                        <path d="M6.55324675,10.78665 L0.449350649,10.78665 C0.219829714,10.78665 0.0337662338,10.5986096 0.0337662338,10.36665 C0.0337662338,10.1346904 0.219829714,9.94665 0.449350649,9.94665 L6.55324675,9.94665 C6.78276769,9.94665 6.96883117,10.1346904 6.96883117,10.36665 C6.96883117,10.5986096 6.78276769,10.78665 6.55324675,10.78665 Z" id="Path"></path>
                        <path d="M6.55324675,8.839425 L0.449350649,8.839425 C0.219829714,8.839425 0.0337662338,8.65138459 0.0337662338,8.419425 C0.0337662338,8.18746541 0.219829714,7.999425 0.449350649,7.999425 L6.55324675,7.999425 C6.78276769,7.999425 6.96883117,8.18746541 6.96883117,8.419425 C6.96883117,8.65138459 6.78276769,8.839425 6.55324675,8.839425 Z" id="Path"></path>
                        <path d="M11.5568831,10.6806 C11.3273622,10.6806 11.1412987,10.4925596 11.1412987,10.2606 L11.1412987,0.43785 C11.1412987,0.205890405 11.3273622,0.01785 11.5568831,0.01785 C11.7864041,0.01785 11.9724675,0.205890405 11.9724675,0.43785 L11.9724675,10.2606 C11.9724675,10.4925596 11.7864041,10.6806 11.5568831,10.6806 Z" id="Path"></path>
                    </g>
                    <path d="M22.1298701,5.145 L19.8961039,5.145 C19.666583,5.145 19.4805195,4.95695959 19.4805195,4.725 C19.4805195,4.49304041 19.666583,4.305 19.8961039,4.305 L22.1298701,4.305 C22.3593911,4.305 22.5454545,4.49304041 22.5454545,4.725 C22.5454545,4.95695959 22.3593911,5.145 22.1298701,5.145 Z" id="Path" fill="#F4B844"></path>
                    <path d="M22.3376623,6.615 L19.6883117,6.615 C19.4587908,6.615 19.2727273,6.42695959 19.2727273,6.195 C19.2727273,5.96304041 19.4587908,5.775 19.6883117,5.775 L22.3376623,5.775 C22.5671833,5.775 22.7532468,5.96304041 22.7532468,6.195 C22.7532468,6.42695959 22.5671833,6.615 22.3376623,6.615 Z" id="Path" fill="#F4B844"></path>
                    <path d="M22.1298701,7.98 L19.8961039,7.98 C19.666583,7.98 19.4805195,7.79195959 19.4805195,7.56 C19.4805195,7.32804041 19.666583,7.14 19.8961039,7.14 L22.1298701,7.14 C22.3593911,7.14 22.5454545,7.32804041 22.5454545,7.56 C22.5454545,7.79195959 22.3593911,7.98 22.1298701,7.98 Z" id="Path" fill="#F4B844"></path>
                    <polygon id="Path" fill="#FFB733" points="15.9558442 19.013925 15.9558442 20.961675 7.92467532 20.961675 7.92467532 0.02625 15.9558442 0.02625 15.9558442 1.974 9.85194805 1.974 9.85194805 3.72645 9.85194805 5.6742 9.85194805 7.621425 9.85194805 9.569175 9.85194805 11.516925 9.85194805 13.46415 9.85194805 15.4119 9.85194805 17.359125 9.85194805 19.013925"></polygon>
                    <path d="M22.9652628,12.818875 L18.9542146,12.818875 L18.2814449,15.318875 L23.6379901,15.318875 L22.9652628,12.818875 Z M18.0554171,15.5500776 L18.0451948,15.5473267 L18.0451948,15.3819738 L18.0795087,15.318875 L18.1087748,15.318875 L18.1646298,15.3492497 L18.0554171,15.5500776 Z" id="Path" stroke="#FFB733" stroke-width="0.5" fill="#FFFFFF"></path>
                </g>
            </g>
        </g>
    </g>
</svg>