<?xml version="1.0" encoding="UTF-8"?>
<svg width="27px" height="25px" viewBox="0 0 27 25" version="1.1" xmlns="http://www.w3.org/2000/svg" xmlns:xlink="http://www.w3.org/1999/xlink">
    <!-- Generator: Sketch 57.1 (83088) - https://sketch.com -->
    <title>IC_PT</title>
    <desc>Created with Sketch.</desc>
    <g id="Page-1" stroke="none" stroke-width="1" fill="none" fill-rule="evenodd">
        <g id="iPhone-XS-Copy-9" transform="translate(-175.000000, -364.000000)">
            <g id="IC_PT" transform="translate(160.000000, 348.000000)">
                <circle id="Oval" cx="28" cy="28" r="28"></circle>
                <g id="weightlifting" transform="translate(15.000000, 16.000000)" fill-rule="nonzero">
                    <g id="Group" transform="translate(10.295720, 10.347630)" fill="#F8B64C">
                        <ellipse id="Oval" transform="translate(0.626742, 0.959413) rotate(-102.344859) translate(-0.626742, -0.959413) " cx="0.626742175" cy="0.959412758" rx="1" ry="1"></ellipse>
                        <ellipse id="Oval" transform="translate(5.713715, 0.997672) rotate(102.344859) translate(-5.713715, -0.997672) " cx="5.71371467" cy="0.997671922" rx="1" ry="1"></ellipse>
                    </g>
                    <path d="M26.4467101,3.68034312 L0.448231518,3.68034312 C0.168093385,3.68034312 0,3.50697968 0,3.27586456 L0,3.27586456 C0,3.04469526 0.168093385,2.81358014 0.448231518,2.81358014 L26.5027062,2.81358014 C26.7268482,2.81358014 26.9509377,2.98694357 26.9509377,3.27586456 L26.9509377,3.27586456 C26.8949416,3.50697968 26.7268482,3.68034312 26.4467101,3.68034312 Z" id="Path" fill="#FFB733"></path>
                    <polygon id="Rectangle" stroke="#FFB733" stroke-width="0.2" fill="#FFFFFF" points="11.8686676 13.6776704 15.0724086 13.6776704 15.0724086 18.1273138 11.8686676 18.1273138"></polygon>
                    <path d="M9.35718093,19.2830519 C9.35718093,19.2830519 10.8700214,17.9539503 11.0381148,14.8334086 C11.0381148,14.8334086 10.4217899,13.9087856 9.74941634,13.8510339 C9.74941634,13.8510339 9.46927821,12.1173995 7.39610895,10.788298 C7.39610895,10.788298 6.66768677,7.20547178 5.43503696,5.1828623 L4.20233463,5.1828623 C4.20233463,5.1828623 4.87470817,10.7304921 5.49103307,11.5973093 C5.49103307,11.5973093 6.77973152,14.1399549 7.05992218,14.8334086 C7.05992218,14.8334086 7.73229572,16.1047585 8.34862062,16.3358736 C8.34862062,16.2781219 8.74085603,18.1851196 9.35718093,19.2830519 Z" id="Path" stroke="#FFB733" stroke-width="0.3" fill="#FFFFFF"></path>
                    <path d="M4.25838327,5.41397743 C4.25838327,5.41397743 3.41791634,5.0094447 3.47396498,3.85370655 L6.10741051,3.85370655 L5.4910856,5.35617156 L4.25838327,5.41397743 Z" id="Path" stroke="#FFB733" stroke-width="0.2" fill="#FFFFFF"></path>
                    <path d="M5.77122374,2.4090474 C5.54708171,2.4090474 5.43503696,2.58241084 5.43503696,2.75577427 C5.43503696,2.58241084 5.26694358,2.4090474 5.09885019,2.4090474 C4.93075681,2.4090474 4.76266342,2.58241084 4.76266342,2.75577427 C4.76266342,2.58241084 4.59457004,2.4090474 4.42647665,2.4090474 C4.31443191,2.4090474 4.14633852,2.58241084 4.14633852,2.75577427 C4.14633852,2.58241084 3.97824514,2.4090474 3.81015175,2.4090474 C3.64205837,2.4090474 3.53001362,2.58241084 3.53001362,2.75577427 L3.53001362,3.91151242 C3.53001362,4.08487585 3.698107,4.25823928 3.86620039,4.25823928 C4.03429377,4.25823928 4.20238716,4.08487585 4.20238716,3.91151242 C4.20238716,4.08487585 4.37048054,4.25823928 4.53857393,4.25823928 C4.70666732,4.25823928 4.8747607,4.08487585 4.8747607,3.91151242 C4.8747607,4.08487585 5.04285409,4.25823928 5.21094747,4.25823928 C5.37904086,4.25823928 5.54713424,4.08487585 5.54713424,3.91151242 C5.54713424,4.08487585 5.71522763,4.25823928 5.88332101,4.25823928 C6.0514144,4.25823928 6.21950778,4.08487585 6.21950778,3.91151242 L6.21950778,2.75577427 C6.05136187,2.58241084 5.93931712,2.4090474 5.77122374,2.4090474 Z" id="Path" stroke="#FFB733" stroke-width="0.2" fill="#FFFFFF"></path>
                    <path d="M5.26694358,4.48940858 L5.7151751,4.25823928 C5.7151751,4.25823928 4.98675292,3.73814898 5.09885019,3.44922799 C5.15489883,3.27586456 5.21089494,3.27586456 5.82727237,3.44922799 L5.82727237,3.44922799 C6.33155253,3.56478555 6.55569455,4.08487585 6.27550389,4.54721445 C6.05136187,4.89394131 5.77122374,5.29847404 5.4910856,5.4140316 C5.4910856,5.4140316 4.8747607,5.47183747 4.98680545,5.00949887 C4.98675292,4.7205237 5.1548463,4.54716027 5.26694358,4.48940858 Z" id="Path" stroke="#FFB733" stroke-width="0.2" fill="#FFFFFF"></path>
                    <path d="M17.5377607,19.2830519 C17.5377607,19.2830519 16.0249202,17.9539503 15.8568268,14.8334086 C15.8568268,14.8334086 16.4731518,13.9087856 17.1455253,13.8510339 C17.1455253,13.8510339 17.4256634,12.1173995 19.4988327,10.788298 C19.4988327,10.788298 20.2272549,7.20547178 21.4599047,5.1828623 L22.6365584,5.1828623 C22.6365584,5.1828623 21.9641848,10.7304921 21.3478599,11.5973093 C21.3478599,11.5973093 20.0591615,14.1399549 19.7789708,14.8334086 C19.7789708,14.8334086 18.632019,16.6391602 18.4902724,16.3358736 C18.546321,16.2781219 18.1540856,18.1851196 17.5377607,19.2830519 Z" id="Path" stroke="#FFB733" stroke-width="0.3" fill="#FFFFFF"></path>
                    <path d="M22.5805623,5.41397743 C22.5805623,5.41397743 23.4210292,5.0094447 23.3649805,3.85370655 L20.731535,3.85370655 L21.3478599,5.35617156 L22.5805623,5.41397743 Z" id="Path" stroke="#FFB733" stroke-width="0.2" fill="#FFFFFF"></path>
                    <path d="M21.1237179,2.4090474 C21.2918113,2.4090474 21.4599047,2.58241084 21.4599047,2.75577427 C21.4599047,2.58241084 21.6279981,2.4090474 21.7960914,2.4090474 C21.9641848,2.4090474 22.1322782,2.58241084 22.1322782,2.75577427 C22.1322782,2.58241084 22.3003716,2.4090474 22.468465,2.4090474 C22.6365584,2.4090474 22.8046518,2.58241084 22.8046518,2.75577427 C22.8046518,2.58241084 22.9727451,2.4090474 23.1408385,2.4090474 C23.3089319,2.4090474 23.4770253,2.58241084 23.4770253,2.75577427 L23.4770253,3.91151242 C23.4770253,4.08487585 23.3089319,4.25823928 23.1408385,4.25823928 C22.9727451,4.25823928 22.8046518,4.08487585 22.8046518,3.91151242 C22.8046518,4.08487585 22.6365584,4.25823928 22.468465,4.25823928 C22.3003716,4.25823928 22.1322782,4.08487585 22.1322782,3.91151242 C22.1322782,4.08487585 21.9641848,4.25823928 21.7960914,4.25823928 C21.6279981,4.25823928 21.4599047,4.08487585 21.4599047,3.91151242 C21.4599047,4.08487585 21.2918113,4.25823928 21.1237179,4.25823928 C20.9556245,4.25823928 20.7875311,4.08487585 20.7875311,3.91151242 L20.7875311,2.75577427 C20.8435798,2.58241084 20.9556245,2.4090474 21.1237179,2.4090474 Z" id="Path" stroke="#FFB733" stroke-width="0.2" fill="#FFFFFF"></path>
                    <path d="M21.6279981,4.48940858 L21.1797665,4.25823928 C21.1797665,4.25823928 21.9081887,3.73814898 21.7960914,3.44922799 C21.7400428,3.27586456 21.6840467,3.27586456 21.0676693,3.44922799 L21.0676693,3.44922799 C20.5633891,3.56478555 20.3392471,4.08487585 20.6194377,4.54721445 C20.8435798,4.89394131 21.1237179,5.29847404 21.403856,5.4140316 C21.403856,5.4140316 22.0201809,5.47183747 21.9081362,5.00949887 C21.8521401,4.7205237 21.7400953,4.54716027 21.6279981,4.48940858 Z" id="Path" stroke="#FFB733" stroke-width="0.2" fill="#FFFFFF"></path>
                    <path d="M24.2614961,6.45415801 L24.2614961,6.45415801 C24.6537315,6.45415801 24.9899183,6.10743115 24.9899183,5.70289842 L24.9899183,0.790970655 C24.9899183,0.386437923 24.6537315,0.0397110609 24.2614961,0.0397110609 L24.2614961,0.0397110609 C23.8692607,0.0397110609 23.5330739,0.386437923 23.5330739,0.790970655 L23.5330739,5.7029526 C23.5330739,6.10743115 23.8692607,6.45415801 24.2614961,6.45415801 Z" id="Path" fill="#FFB733"></path>
                    <path d="M25.6622393,5.87631603 L25.6622393,5.87631603 C26.0544747,5.87631603 26.3906615,5.52958916 26.3906615,5.12505643 L26.3906615,1.36886682 C26.3906615,0.964334086 26.0544747,0.617607223 25.6622393,0.617607223 L25.6622393,0.617607223 C25.2700039,0.617607223 24.9338171,0.964334086 24.9338171,1.36886682 L24.9338171,5.1828623 C24.9898658,5.52958916 25.2700564,5.87631603 25.6622393,5.87631603 Z" id="Path" fill="#FFB733"></path>
                    <path d="M2.63344553,6.45415801 L2.63344553,6.45415801 C2.24121012,6.45415801 1.90502335,6.10743115 1.90502335,5.70289842 L1.90502335,0.790970655 C1.90502335,0.386437923 2.24121012,0.0397110609 2.63344553,0.0397110609 L2.63344553,0.0397110609 C3.02568093,0.0397110609 3.3618677,0.386437923 3.3618677,0.790970655 L3.3618677,5.7029526 C3.3618677,6.10743115 3.02568093,6.45415801 2.63344553,6.45415801 Z" id="Path" fill="#FFB733"></path>
                    <path d="M1.23270233,5.87631603 L1.23270233,5.87631603 C0.840466926,5.87631603 0.504280156,5.52958916 0.504280156,5.12505643 L0.504280156,1.36886682 C0.504280156,0.964334086 0.840466926,0.617607223 1.23270233,0.617607223 L1.23270233,0.617607223 C1.62493774,0.617607223 1.96112451,0.964334086 1.96112451,1.36886682 L1.96112451,5.1828623 C1.90507588,5.52958916 1.62488521,5.87631603 1.23270233,5.87631603 Z" id="Path" fill="#FFB733"></path>
                    <path d="M16.1930136,10.5571287 C16.1930136,12.1173995 14.9603113,15.006772 13.4474708,15.006772 C11.9346304,15.006772 10.701928,12.1173995 10.701928,10.5571287 C10.701928,8.99685779 11.9346304,7.7255079 13.4474708,7.7255079 C14.9603113,7.7255079 16.1930136,8.99685779 16.1930136,10.5571287 Z" id="Path" stroke="#FFB733" stroke-width="0.2" fill="#FFFFFF"></path>
                    <path d="M10.92607,11.9440361 L11.3183054,10.788298 C11.3183054,10.788298 10.8140253,8.76574266 11.5984436,9.17022122 C11.5984436,9.17022122 13.3914222,9.80586907 15.3525467,9.11241535 C15.3525467,9.11241535 15.8568268,8.99685779 15.5766887,10.9038555 L16.0249202,12.001842 C16.0249202,12.001842 16.0809689,11.0194673 16.361107,10.5571287 C16.361107,10.5571287 17.425716,7.89887133 15.2405019,6.16523702 C15.2405019,6.16523702 15.1844533,6.80088488 14.400035,6.74313318 C14.400035,6.74313318 12.4949591,6.68532731 11.990679,7.03205418 C11.990679,7.03205418 10.5338872,7.32097517 10.3657938,9.17022122 C10.3657938,9.17022122 10.3097451,10.2682077 10.7580292,11.1350248 C10.7579767,11.0194131 10.92607,11.7128668 10.92607,11.9440361 Z" id="Path" fill="#FFB733"></path>
                    <path d="M17.5377607,19.2830519 L16.5292004,23.9638646 L10.3657412,23.9638646 L9.35718093,19.2830519 C10.5338346,16.0469526 11.0381148,14.8334086 11.0381148,14.8334086 C11.0381148,14.8334086 11.2622568,14.717851 11.8785817,14.6600451 C11.8785817,14.6600451 11.9906265,15.5846682 12.2708171,16.509237 C12.6630525,17.722781 14.3439864,17.722781 14.7361693,16.509237 C15.072356,15.5268623 15.1284047,14.6022393 15.1284047,14.6022393 C15.7447296,14.7177968 15.912823,14.8334086 15.912823,14.8334086 C15.912823,14.8334086 16.361107,16.0469526 17.5377607,19.2830519 Z" id="Path" stroke="#FFB733" stroke-width="0.2" fill="#FFB733"></path>
                </g>
            </g>
        </g>
    </g>
</svg>