<?xml version="1.0" encoding="UTF-8"?>
<svg width="24px" height="23px" viewBox="0 0 24 23" version="1.1" xmlns="http://www.w3.org/2000/svg" xmlns:xlink="http://www.w3.org/1999/xlink">
    <!-- Generator: Sketch 57.1 (83088) - https://sketch.com -->
    <title>IC_PHOTO</title>
    <desc>Created with Sketch.</desc>
    <g id="Page-1" stroke="none" stroke-width="1" fill="none" fill-rule="evenodd">
        <g id="iPhone-XS-Copy-9" transform="translate(-176.000000, -269.000000)">
            <g id="IC_PHOTO" transform="translate(160.000000, 252.000000)">
                <circle id="Oval" cx="28" cy="28" r="28"></circle>
                <g id="photo-camera" transform="translate(16.000000, 17.000000)" fill-rule="nonzero">
                    <path d="M21.9965217,7.88952273 L17.0436522,7.88952273 L17.0436522,2.10031818 C17.0436522,1.10295455 16.2286957,0.299522727 15.2332174,0.299522727 L8.55965217,0.299522727 C7.56365217,0.299522727 6.77582609,1.10295455 6.77582609,2.10031818 L6.77582609,7.889 L5.55547826,7.889 L5.55547826,6.99879545 C5.55547826,6.5895 5.2413913,6.2445 4.83234783,6.2445 L2.52626087,6.2445 C2.11721739,6.2445 1.76765217,6.5895 1.76765217,6.99879545 L1.76765217,7.88325 C0.799826087,7.889 0,8.69556818 0,9.68927273 L0,20.7125455 C0,21.7104318 0.800347826,22.5190909 1.79634783,22.5190909 L21.9965217,22.5190909 C22.992,22.5190909 23.8184348,21.7104318 23.8184348,20.7125455 L23.8184348,9.68979545 C23.8184348,8.69138636 22.992,7.88952273 21.9965217,7.88952273 Z M8.37443478,2.51745455 C8.37443478,2.10763636 8.70626087,1.77465909 9.11530435,1.77465909 L14.6613913,1.77465909 C15.0709565,1.77465909 15.4027826,2.10763636 15.4027826,2.51745455 L15.4027826,3.18340909 C15.4027826,3.59270455 15.0709565,3.92568182 14.6613913,3.92568182 L9.11530435,3.92568182 C8.70626087,3.92568182 8.37443478,3.59270455 8.37443478,3.18340909 L8.37443478,2.51745455 L8.37443478,2.51745455 Z M11.8966957,21.38425 C8.4933913,21.38425 5.72504348,18.6101364 5.72504348,15.2019545 C5.72504348,11.7927273 8.4933913,9.01861364 11.8966957,9.01861364 C15.2994783,9.01861364 18.0678261,11.7927273 18.0678261,15.2019545 C18.0678261,18.6101364 15.2994783,21.38425 11.8966957,21.38425 Z" id="Shape" fill="#FFB733"></path>
                    <path d="M11.8966957,11.6868864 C9.96329464,11.6868864 8.38921739,13.2638031 8.38921739,15.2019545 C8.38921739,17.1398669 9.96305559,18.7159773 11.8966957,18.7159773 C13.830526,18.7159773 15.4041739,17.1401991 15.4041739,15.2020724 C15.4037172,13.2636581 13.8299261,11.6868864 11.8966957,11.6868864 Z" id="Path" stroke="#FFB733" fill="#FFFFFF"></path>
                </g>
            </g>
        </g>
    </g>
</svg>